#!OML:ASF F:\VICON\USERDATA\INSTALL\rory3\rory3.ASF
:FULLY-SPECIFIED
:DEGREES
78
root 0.9286619723138072 17.94123752916845 39.766329410121536 -2.9870038368428755 -2.565605889139408 -0.28160421909284694
lfemur 4.976234510749027 -3.5780015488457866 -23.216911012567337
ltibia 38.95135722516778
lfoot -13.047042504118634 3.4429726938528686
ltoes -13.634646353881307
rfemur -16.704597938074347 4.444741485798817 23.01653155590195
rtibia 41.09834664167725
rfoot -17.56044320893813 -8.380877751533983
rtoes -1.1604580572275167
lowerback 9.259945745961993 -0.6653238698158387 -0.759215450750691
upperback 0.21151706771551493 -1.1406771025450944 1.74087099000231
thorax -4.912996219463606 -0.5562560589800717 3.2840243122370016
lowerneck -16.935665270586547 -2.7627935067218585 -1.5882200592099922
upperneck 21.802671088247987 -3.5312777980158554 0.4521477816355039
head 9.907642737263911 -1.7215329243732918 -0.008300988186594332
lclavicle -2.7971981745024083e-15 -4.1600761639530785e-16
lhumerus -24.213814901915185 -3.223496016387023 82.92884806211033
lradius 29.144403220886623
lwrist 7.316412877022344
lhand -27.363329867525735 21.90017821386286
lfingers 7.1250199999999975
lthumb -0.8171006019035698 52.08401765783224
rclavicle -2.79719817448382e-15 -4.1600761638241623e-16
rhumerus -30.61592946853634 -20.539661142586016 -78.99885847689063
rradius 26.41733975070871
rwrist 4.343914033903969
rhand -17.295065809716107 22.061468312868918
rfingers 7.1250199999999975
rthumb 9.21513283299505 -7.727289461519714
79
root 0.9301429423452179 17.931503026908103 40.02633354454053 -2.944299191941054 -2.678173063521406 -0.44360812531599536
lfemur 5.253223658499321 -3.588573325127065 -23.01949957369505
ltibia 39.80181638742919
lfoot -12.763284233908685 3.268369105571729
ltoes -14.490515769872763
rfemur -16.364305562581283 4.565785606769202 23.375872272307202
rtibia 39.77710938794172
rfoot -18.188309432902454 -8.715520748419285
rtoes -2.2684577613646746
lowerback 9.270196157577224 -0.6799638061649481 -0.6596165435465939
upperback 0.23423667044380264 -1.1449551277044292 1.8082822606609208
thorax -4.880347685362113 -0.5591493328297416 3.31576256775159
lowerneck -16.947063150676357 -2.745822152704605 -1.6030057889413383
upperneck 21.885260217499624 -3.502822888515233 0.39659418927099743
head 9.94433283486478 -1.7114592920898828 -0.021723122074105594
lclavicle -2.7971981745034607e-15 -4.1600761639564065e-16
lhumerus -24.44760837059378 -3.4594712950192283 83.08661060247515
lradius 28.957424969783077
lwrist 7.360467214386041
lhand -27.401127201527515 22.282193900209865
lfingers 7.1250199999999975
lthumb -0.866844268985622 52.42802084995243
rclavicle -2.797198174488723e-15 -4.1600761638532235e-16
rhumerus -30.37100524881475 -20.491262623633613 -78.82284847895242
rradius 26.50640957049463
rwrist 4.741272493868875
rhand -17.324482867102844 22.03367320328376
rfingers 7.1250199999999975
rthumb 9.195331504372785 -7.784183081754412
80
root 0.9434332560392997 17.935129235467844 40.42569785540097 -2.7852421241758254 -2.6326563788532304 -0.6750388252992316
lfemur 5.542122334225736 -3.5592418201520055 -22.595350438778276
ltibia 40.905892628409255
lfoot -12.511252443759064 2.9491548636183182
ltoes -14.43620343839813
rfemur -15.961981571215299 4.613802736637038 23.70977696969823
rtibia 38.27851619310529
rfoot -18.5464549628701 -8.939686729496716
rtoes -3.326097222113805
lowerback 9.285671230021217 -0.7653158743994958 -0.5451548325815605
upperback 0.24328731252124478 -1.204956714857372 1.8875881414575237
thorax -4.866081927650989 -0.5902258624691509 3.3180876348635744
lowerneck -16.954834340412404 -2.734091885575933 -1.624654902728583
upperneck 21.89622361423015 -3.4779300371531265 0.3435438119264983
head 9.954083096667988 -1.7028435255387926 -0.03449373042205278
lclavicle -2.797198174506744e-15 -4.160076163974558e-16
lhumerus -24.74652344946485 -3.867853268051082 83.2468563751272
lradius 28.60197648022406
lwrist 7.272274744592588
lhand -27.307420159107597 22.79239081488508
lfingers 7.1250199999999975
lthumb -0.8479803084841216 52.805944489893164
rclavicle -2.7971981744904027e-15 -4.1600761638609607e-16
rhumerus -30.071886126088355 -20.36383732780782 -78.68668377880977
rradius 26.53529242838119
rwrist 5.136586964621062
rhand -17.357631139309596 21.969562325212763
rfingers 7.1250199999999975
rthumb 9.092810012673946 -8.002802953705096
81
root 0.9538748336100684 17.93369283768627 40.70555549734287 -2.7715548738842104 -2.6653641938490855 -0.6281092165458186
lfemur 5.742786427767058 -3.5823615951544516 -22.58043660843628
ltibia 42.154910175967956
lfoot -12.192228571549961 2.4884333457585353
ltoes -13.994613109594978
rfemur -15.673266745453159 4.610946314884502 23.768096851564447
rtibia 36.87589455879515
rfoot -18.905042745921584 -9.10015279986613
rtoes -3.7699782423103483
lowerback 9.327577739263221 -0.8076696529901052 -0.5361568888836494
upperback 0.2802001542849355 -1.2402759504192806 1.9439882827949528
thorax -4.872929389927311 -0.6051446692155412 3.286213366259594
lowerneck -16.95642147946781 -2.724063643860157 -1.6466422236064746
upperneck 21.765408771166182 -3.4619590365493487 0.35711233400631204
head 9.881505019160668 -1.69750204190264 -0.016488657851427974
lclavicle -2.7971981745063775e-15 -4.1600761639690687e-16
lhumerus -24.924392346762954 -4.294913522581287 83.43583778504741
lradius 28.145975782779633
lwrist 6.992225175952765
lhand -27.38600288254477 22.803728964275273
lfingers 7.1250199999999975
lthumb -0.9164812069948531 52.84795113250247
rclavicle -2.7971981744924813e-15 -4.160076163871755e-16
rhumerus -29.795440764488262 -20.246084629935766 -78.50333078640237
rradius 26.53346447833647
rwrist 5.283906286422726
rhand -17.349877742989158 21.965689442663184
rfingers 7.1250199999999975
rthumb 9.013188058548321 -8.052815807755824
